<?xml version="1.0" encoding="UTF-8" standalone="no"?>
<svg
   xmlns:dc="http://purl.org/dc/elements/1.1/"
   xmlns:cc="http://creativecommons.org/ns#"
   xmlns:rdf="http://www.w3.org/1999/02/22-rdf-syntax-ns#"
   xmlns:svg="http://www.w3.org/2000/svg"
   xmlns="http://www.w3.org/2000/svg"
   xmlns:sodipodi="http://sodipodi.sourceforge.net/DTD/sodipodi-0.dtd"
   xmlns:inkscape="http://www.inkscape.org/namespaces/inkscape"
   id="svg8"
   version="1.1"
   viewBox="0 0 512 512"
   sodipodi:docname="lol.svg"
   inkscape:version="0.92.4 5da689c313, 2019-01-14">
  <sodipodi:namedview
     pagecolor="#ffffff"
     bordercolor="#666666"
     borderopacity="1"
     objecttolerance="10"
     gridtolerance="10"
     guidetolerance="10"
     inkscape:pageopacity="0"
     inkscape:pageshadow="2"
     inkscape:window-width="1920"
     inkscape:window-height="1021"
     id="namedview7"
     showgrid="false"
     inkscape:pagecheckerboard="true"
     inkscape:zoom="0.921875"
     inkscape:cx="60.929331"
     inkscape:cy="336.00704"
     inkscape:window-x="0"
     inkscape:window-y="27"
     inkscape:window-maximized="1"
     inkscape:current-layer="svg8" />
  <metadata
     id="metadata14">
    <rdf:RDF>
      <cc:Work
         rdf:about="">
        <dc:format>image/svg+xml</dc:format>
        <dc:type
           rdf:resource="http://purl.org/dc/dcmitype/StillImage" />
        <dc:title></dc:title>
      </cc:Work>
    </rdf:RDF>
  </metadata>
  <defs
     id="defs12" />
  <path
     style="fill:#ffffff;stroke-width:1"
     d="M 256 4.078125 C 187.58422 4.0781319 179.0024 4.3697176 152.13672 5.5957031 C 125.32172 6.8197031 107.00838 11.076688 90.984375 17.304688 C 74.174974 23.630319 58.948555 33.546118 46.365234 46.361328 C 33.547136 58.94386 23.628755 74.172291 17.300781 90.982422 C 11.077781 107.00742 6.8186094 125.31977 5.5996094 152.13477 C 4.3686094 179.00077 4.078125 187.582 4.078125 256 C 4.078125 324.418 4.3686094 332.99923 5.5996094 359.86523 C 6.8236094 386.68023 11.082547 404.99358 17.310547 421.01758 C 23.636207 437.82697 33.552003 453.05338 46.367188 465.63672 C 58.950468 478.45198 74.176898 488.36779 90.986328 494.69336 C 107.01133 500.92136 125.32467 505.1803 152.13867 506.4043 C 179.00867 507.6303 187.58691 507.91992 256.00391 507.91992 C 324.42091 507.91992 333.00314 507.6303 359.86914 506.4043 C 386.68414 505.1803 404.99748 500.92136 421.02148 494.69336 C 454.86022 481.60583 481.60974 454.85632 494.69727 421.01758 C 500.92527 404.99258 505.1842 386.67923 506.4082 359.86523 C 507.6342 332.99523 507.92383 324.417 507.92383 256 C 507.92383 187.583 507.6342 179.00077 506.4082 152.13477 C 505.1842 125.31977 500.92527 107.00642 494.69727 90.982422 C 488.3717 74.172992 478.45588 58.946561 465.64062 46.363281 C 453.05704 33.545516 437.82862 23.627755 421.01758 17.300781 C 404.99258 11.077781 386.68023 6.8186094 359.86523 5.5996094 C 332.99955 4.3686239 324.41773 4.0781319 256.00195 4.078125 L 256 4.078125 z M 253.46094 71.865234 C 359.48661 71.865234 445.41602 152.02826 445.41602 257.60938 C 445.53152 342.02828 393.78815 414.37117 317.56055 439.67383 C 307.85885 441.39901 304.2793 435.41818 304.2793 430.47266 C 304.2793 424.26201 304.50977 392.51879 304.50977 366.87109 C 304.50977 348.9292 298.50426 337.54313 291.45898 331.5625 C 334.19264 326.847 379.23633 320.98103 379.23633 247.48828 C 379.23633 226.55608 371.72895 216.09119 359.48633 202.63477 C 361.44977 197.68925 368.03361 177.33169 357.52344 150.87891 C 341.46945 145.93339 304.74023 171.46484 304.74023 171.46484 C 289.49471 167.20939 272.9803 165.02539 256.69531 165.02539 C 240.41032 165.02539 223.89396 167.20939 208.64844 171.46484 C 208.64844 171.46484 171.91923 145.93339 155.86523 150.87891 C 145.35506 177.21668 151.82341 197.57424 153.90234 202.63477 C 141.65973 216.09119 135.88477 226.55608 135.88477 247.48828 C 135.88477 320.636 178.96557 326.847 221.69922 331.5625 C 216.1554 336.50802 211.18947 345.01965 209.45703 357.21094 C 198.48487 362.15646 170.41886 370.66576 153.67188 341.22266 C 143.16171 323.05075 124.2207 321.55664 124.2207 321.55664 C 105.51029 321.32662 122.94922 333.28711 122.94922 333.28711 C 135.42283 339.03771 144.20117 361.12109 144.20117 361.12109 C 155.40432 395.27968 208.99414 383.77734 208.99414 383.77734 C 208.99414 399.76403 209.22461 425.75716 209.22461 430.47266 C 209.22461 435.41818 205.76055 441.39901 195.94336 439.67383 C 119.71576 414.25615 66.357422 342.02828 66.357422 257.60938 C 66.357422 152.02826 147.43529 71.865234 253.46094 71.865234 z M 134.20898 327.47852 C 134.67661 327.46571 135.20649 327.55193 135.76953 327.76758 C 137.27099 328.57266 137.96394 329.83771 137.50195 330.75781 C 137.03996 331.79292 135.53804 332.02188 134.26758 331.2168 C 132.76613 330.52673 132.07317 329.26167 132.53516 328.22656 C 132.82389 327.79527 133.42961 327.49985 134.20898 327.47852 z M 142.13672 334.01367 C 143.00971 334.03052 143.98526 334.52336 144.7793 335.24219 C 146.04976 336.73735 146.27969 338.46249 145.24023 339.26758 C 144.20076 340.30269 142.46773 339.72826 141.19727 338.57812 C 139.92681 337.08297 139.69686 335.35782 140.73633 334.55273 C 141.12613 334.16457 141.61293 334.00356 142.13672 334.01367 z M 149.53125 343.76758 C 150.66817 343.63819 151.96844 344.41509 152.74805 345.70898 C 154.01851 347.43416 154.01851 349.50373 152.74805 350.42383 C 151.70858 351.1139 149.74507 350.4244 148.47461 348.69922 C 147.20415 346.97404 147.20415 345.01797 148.47461 344.21289 C 148.79222 343.95411 149.15228 343.81071 149.53125 343.76758 z M 158.82422 354.69336 C 159.87316 354.60351 161.13597 355.09754 162.21875 356.17578 C 163.72021 357.67093 164.29728 359.97053 163.25781 360.89062 C 162.21834 362.15576 160.02346 361.92635 158.29102 360.20117 C 156.55857 358.70601 156.09699 356.51949 157.25195 355.48438 C 157.64175 355.00995 158.19485 354.74727 158.82422 354.69336 z M 172.72656 363.05664 C 173.22645 363.03328 173.73961 363.07639 174.23047 363.19141 C 176.54039 363.88148 178.04233 365.6064 177.46484 367.10156 C 177.00286 368.59672 174.69196 369.28577 172.72852 368.5957 C 170.53409 368.13565 169.03216 366.41118 169.49414 364.91602 C 169.84063 363.79465 171.22691 363.12672 172.72656 363.05664 z M 204.0332 363.73242 C 205.90438 363.77487 207.52249 364.64291 207.72461 365.95117 C 208.0711 367.44632 206.5697 368.94229 204.25977 369.40234 C 202.06534 369.86239 199.98491 368.94047 199.75391 367.44531 C 199.52292 365.72013 201.02432 364.22568 203.21875 363.76562 C 203.49305 363.73687 203.76589 363.72636 204.0332 363.73242 z M 189.82812 365.58789 C 191.69614 365.69954 193.28711 366.85765 193.28711 368.36719 C 193.28711 369.86235 191.55407 371.12695 189.24414 371.12695 C 186.70322 371.35698 184.9707 370.09237 184.9707 368.36719 C 184.9707 366.87203 186.70374 365.60547 189.01367 365.60547 C 189.28798 365.57672 189.56127 365.57194 189.82812 365.58789 z "
     id="path2-3" />
</svg>
