<?xml version="1.0" encoding="UTF-8" standalone="no"?>
<svg
   xmlns:dc="http://purl.org/dc/elements/1.1/"
   xmlns:cc="http://creativecommons.org/ns#"
   xmlns:rdf="http://www.w3.org/1999/02/22-rdf-syntax-ns#"
   xmlns:svg="http://www.w3.org/2000/svg"
   xmlns="http://www.w3.org/2000/svg"
   xmlns:sodipodi="http://sodipodi.sourceforge.net/DTD/sodipodi-0.dtd"
   xmlns:inkscape="http://www.inkscape.org/namespaces/inkscape"
   id="svg8"
   version="1.1"
   viewBox="0 0 512 512"
   sodipodi:docname="li.svg"
   inkscape:version="0.92.4 5da689c313, 2019-01-14">
  <sodipodi:namedview
     pagecolor="#ffffff"
     bordercolor="#666666"
     borderopacity="1"
     objecttolerance="10"
     gridtolerance="10"
     guidetolerance="10"
     inkscape:pageopacity="0"
     inkscape:pageshadow="2"
     inkscape:window-width="1920"
     inkscape:window-height="1021"
     id="namedview7"
     showgrid="false"
     inkscape:pagecheckerboard="true"
     inkscape:zoom="1.3037281"
     inkscape:cx="293.91271"
     inkscape:cy="231.1765"
     inkscape:window-x="0"
     inkscape:window-y="27"
     inkscape:window-maximized="1"
     inkscape:current-layer="svg8" />
  <metadata
     id="metadata14">
    <rdf:RDF>
      <cc:Work
         rdf:about="">
        <dc:format>image/svg+xml</dc:format>
        <dc:type
           rdf:resource="http://purl.org/dc/dcmitype/StillImage" />
        <dc:title></dc:title>
      </cc:Work>
    </rdf:RDF>
  </metadata>
  <defs
     id="defs12" />
  <path
     style="stroke-width:1;fill:#ffffff"
     d="M 134.32031 6.9824219 C 116.72257 8.9694228 103.18428 12.562986 90.984375 17.304688 C 74.174974 23.630319 58.948555 33.546118 46.365234 46.361328 C 33.547136 58.94386 23.628755 74.172291 17.300781 90.982422 C 13.956135 99.595303 11.195956 108.90947 9.1542969 119.8125 L 9.1542969 392.15625 C 11.197519 403.0727 13.960113 412.39726 17.310547 421.01758 C 23.636207 437.82697 33.552003 453.05338 46.367188 465.63672 C 58.950468 478.45198 74.176898 488.36779 90.986328 494.69336 C 103.18238 499.43327 116.71501 503.02762 134.30273 505.01562 L 377.70508 505.01562 C 395.29327 503.02763 408.82616 499.43328 421.02148 494.69336 C 454.86022 481.60583 481.60974 454.85632 494.69727 421.01758 C 498.04437 412.40529 500.80492 403.09151 502.84766 392.18945 L 502.84766 119.81055 C 500.80493 108.9083 498.04438 99.594218 494.69727 90.982422 C 488.3717 74.172992 478.45588 58.946561 465.64062 46.363281 C 453.05704 33.545516 437.82862 23.627755 421.01758 17.300781 C 408.81982 12.564016 395.28658 8.9681919 377.69531 6.9824219 L 134.32031 6.9824219 z M 142.86328 73.46875 C 162.73451 73.46875 178.86133 89.86235 178.86133 110.07422 C 178.86133 130.2861 162.75508 146.67969 142.86328 146.67969 C 122.99206 146.67969 106.86328 130.2861 106.86328 110.07422 C 106.86328 89.86235 122.99206 73.46875 142.86328 73.46875 z M 343.97852 172.99023 C 382.03624 172.71955 420.56641 197.98024 420.56641 261 L 420.56641 401.25977 L 358.85352 401.25977 L 358.85352 284.96875 C 358.85352 215.078 276.57227 220.36962 276.57227 284.96875 L 276.57227 401.25977 L 214.85938 401.25977 L 214.85938 172.99414 L 276.57227 172.99414 L 276.57227 209.61914 C 288.68707 186.98 316.20666 173.18776 343.97852 172.99023 z M 112.00586 172.99414 L 173.71875 172.99414 L 173.71875 401.25977 L 112.00586 401.25977 L 112.00586 172.99414 z "
     id="path961" />
</svg>
