<?xml version="1.0" encoding="UTF-8" standalone="no"?>
<svg
   xmlns:dc="http://purl.org/dc/elements/1.1/"
   xmlns:cc="http://creativecommons.org/ns#"
   xmlns:rdf="http://www.w3.org/1999/02/22-rdf-syntax-ns#"
   xmlns:svg="http://www.w3.org/2000/svg"
   xmlns="http://www.w3.org/2000/svg"
   xmlns:sodipodi="http://sodipodi.sourceforge.net/DTD/sodipodi-0.dtd"
   xmlns:inkscape="http://www.inkscape.org/namespaces/inkscape"
   id="svg8"
   version="1.1"
   viewBox="0 0 512 512"
   sodipodi:docname="tw.svg"
   inkscape:version="0.92.4 5da689c313, 2019-01-14">
  <sodipodi:namedview
     pagecolor="#ffffff"
     bordercolor="#666666"
     borderopacity="1"
     objecttolerance="10"
     gridtolerance="10"
     guidetolerance="10"
     inkscape:pageopacity="0"
     inkscape:pageshadow="2"
     inkscape:window-width="1920"
     inkscape:window-height="1021"
     id="namedview7"
     showgrid="false"
     inkscape:pagecheckerboard="true"
     inkscape:zoom="0.921875"
     inkscape:cx="414.20927"
     inkscape:cy="280.43037"
     inkscape:window-x="0"
     inkscape:window-y="27"
     inkscape:window-maximized="1"
     inkscape:current-layer="svg8" />
  <metadata
     id="metadata14">
    <rdf:RDF>
      <cc:Work
         rdf:about="">
        <dc:format>image/svg+xml</dc:format>
        <dc:type
           rdf:resource="http://purl.org/dc/dcmitype/StillImage" />
        <dc:title />
      </cc:Work>
    </rdf:RDF>
  </metadata>
  <defs
     id="defs12" />
  <path
     style="fill:#ffffff;stroke-width:1"
     d="M 146.70898 5.8964844 C 122.81168 7.4212518 105.90165 11.506836 90.984375 17.304688 C 74.174974 23.630319 58.948555 33.546118 46.365234 46.361328 C 33.547136 58.94386 23.628755 74.172291 17.300781 90.982422 C 12.5651 103.17739 8.9711388 116.70961 6.984375 134.29297 L 6.984375 377.67383 C 8.9727278 395.27342 12.568113 408.81579 17.310547 421.01758 C 23.636207 437.82697 33.552003 453.05338 46.367188 465.63672 C 58.950468 478.45198 74.176898 488.36779 90.986328 494.69336 C 105.8983 500.48879 122.80097 504.57505 146.68164 506.10156 L 365.32617 506.10156 C 389.20776 504.57507 406.1104 500.48881 421.02148 494.69336 C 454.86022 481.60583 481.60974 454.85632 494.69727 421.01758 C 499.43482 408.82759 503.02796 395.30121 505.01758 377.72852 L 505.01758 134.27148 C 503.02797 116.69823 499.43484 103.17172 494.69727 90.982422 C 488.3717 74.172992 478.45588 58.946561 465.64062 46.363281 C 453.05704 33.545516 437.82862 23.627755 421.01758 17.300781 C 406.0936 11.50534 389.17749 7.4160547 365.26562 5.8964844 L 146.70898 5.8964844 z M 330.22852 130.94727 C 349.79709 130.94727 367.5184 139.24263 379.92773 152.56055 C 395.44978 149.49679 410.03965 143.8072 423.2168 135.9707 C 418.11196 151.95634 407.32018 165.35853 393.27148 173.82031 C 407.05041 172.15296 420.18684 168.4846 432.38867 163.04492 C 423.2788 176.71714 411.72011 188.76431 398.37695 198.41406 C 402.714 294.6407 331.26629 401.93359 204.76562 401.93359 C 166.29251 401.93359 130.49554 390.61598 100.34375 371.19141 C 136.49271 375.46398 172.56033 365.3972 201.19727 342.86719 C 171.3775 342.30449 146.22562 322.52538 137.57227 295.34766 C 148.25925 297.39015 158.75976 296.78686 168.32617 294.18164 C 135.55968 287.57478 112.96119 257.93672 113.6875 226.23633 C 122.85963 231.36341 133.37994 234.44842 144.52344 234.80273 C 114.20563 214.44031 105.61594 174.21563 123.44141 143.45312 C 157.03793 184.84497 207.23586 212.08608 263.8457 214.94141 C 253.90578 172.15316 286.25628 130.94727 330.22852 130.94727 z "
     id="path2" />
</svg>
